<svg xmlns="http://www.w3.org/2000/svg" version="1.1" xmlnsXlink="http://www.w3.org/1999/xlink" xmlnsSvgjs="http://svgjs.dev/svgjs" width="1000" height="154" viewBox="0 0 1000 154"><g transform="matrix(1,0,0,1,0.9312437066957386,-0.000881254796482267)"><svg viewBox="0 0 396 61" dataBackgroundColor="#ffffff" preserveAspectRatio="xMidYMid meet" height="154" width="1000" xmlns="http://www.w3.org/2000/svg" xmlnsXlink="http://www.w3.org/1999/xlink"><g id="tight-bounds" transform="matrix(1,0,0,1,0.24047071660993424,0.00034906845834825617)"><svg viewBox="0 0 395.52 60.99930186308329" height="60.99930186308329" width="395.52"><g><svg viewBox="0 0 483.2109272879476 74.52348608712052" height="60.99930186308329" width="395.52"><g transform="matrix(1,0,0,1,87.69092728794757,10.29955560248916)"><svg viewBox="0 0 395.52 53.924374882142196" height="53.924374882142196" width="395.52"><g id="textblocktransform"><svg viewBox="0 0 395.52 53.924374882142196" height="53.924374882142196" width="395.52" id="textblock"><g><svg viewBox="0 0 395.52 53.924374882142196" height="53.924374882142196" width="395.52"><g transform="matrix(1,0,0,1,0,0)"><svg width="395.52" viewBox="1 -35.45000076293945 269.2300109863281 36.150001525878906" height="53.924374882142196" dataPaletteColor="#1ebbd7"><g class="undefined-text-0" dataFillPaletteColor="primary" id="text-0"><path d="M1-34.65L29.7-34.65 29.7-28 19.25-28 19.25 0 11.45 0 11.45-28 1-28 1-34.65ZM59.25 0L34.7 0 34.7-34.65 58.1-34.65 58.1-28.1 42.5-28.1 42.5-21.3 56.35-21.3 56.35-14.9 42.5-14.9 42.5-6.55 59.25-6.55 59.25 0ZM80.8 0.7L80.8 0.7Q72.34 0.7 67.92-4 63.5-8.7 63.5-17.35L63.5-17.35Q63.5-21.65 64.84-25.03 66.2-28.4 68.55-30.73 70.9-33.05 74.15-34.25 77.4-35.45 81.2-35.45L81.2-35.45Q83.4-35.45 85.2-35.13 87-34.8 88.34-34.38 89.7-33.95 90.59-33.5 91.5-33.05 91.9-32.8L91.9-32.8 89.65-26.5Q88.05-27.35 85.92-27.95 83.8-28.55 81.09-28.55L81.09-28.55Q79.3-28.55 77.57-27.95 75.84-27.35 74.52-26.03 73.2-24.7 72.4-22.6 71.59-20.5 71.59-17.5L71.59-17.5Q71.59-15.1 72.12-13.03 72.65-10.95 73.82-9.45 75-7.95 76.9-7.08 78.8-6.2 81.5-6.2L81.5-6.2Q83.2-6.2 84.55-6.4 85.9-6.6 86.95-6.88 88-7.15 88.8-7.5 89.59-7.85 90.25-8.15L90.25-8.15 92.4-1.9Q90.75-0.9 87.75-0.1 84.75 0.7 80.8 0.7ZM118.29-21.4L118.29-34.65 126.09-34.65 126.09 0 118.29 0 118.29-14.7 105.19-14.7 105.19 0 97.39 0 97.39-34.65 105.19-34.65 105.19-21.4 118.29-21.4ZM135.84-34.65L143.29-34.65Q144.19-33 145.37-30.58 146.54-28.15 147.82-25.33 149.09-22.5 150.34-19.55 151.59-16.6 152.69-14L152.69-14Q153.79-16.6 155.04-19.55 156.29-22.5 157.57-25.33 158.84-28.15 160.02-30.58 161.19-33 162.09-34.65L162.09-34.65 169.19-34.65Q169.69-31.2 170.12-26.93 170.54-22.65 170.87-18.03 171.19-13.4 171.47-8.75 171.74-4.1 171.94 0L171.94 0 164.34 0Q164.19-5.05 163.94-11 163.69-16.95 163.19-23L163.19-23Q162.29-20.9 161.19-18.35 160.09-15.8 159.02-13.25 157.94-10.7 156.94-8.38 155.94-6.05 155.24-4.4L155.24-4.4 149.79-4.4Q149.09-6.05 148.09-8.38 147.09-10.7 146.02-13.25 144.94-15.8 143.84-18.35 142.74-20.9 141.84-23L141.84-23Q141.34-16.95 141.09-11 140.84-5.05 140.69 0L140.69 0 133.09 0Q133.29-4.1 133.57-8.75 133.84-13.4 134.17-18.03 134.49-22.65 134.92-26.93 135.34-31.2 135.84-34.65L135.84-34.65ZM210.49 0L202.14 0Q201.59-1.8 200.91-3.7 200.24-5.6 199.59-7.5L199.59-7.5 186.09-7.5Q185.44-5.6 184.76-3.7 184.09-1.8 183.54 0L183.54 0 175.44 0Q177.39-5.6 179.14-10.35 180.89-15.1 182.56-19.3 184.24-23.5 185.86-27.28 187.49-31.05 189.24-34.65L189.24-34.65 196.69-34.65Q198.39-31.05 200.04-27.28 201.69-23.5 203.36-19.3 205.04-15.1 206.79-10.35 208.54-5.6 210.49 0L210.49 0ZM192.79-26.8L192.79-26.8Q192.54-26.05 192.04-24.75 191.54-23.45 190.89-21.75 190.24-20.05 189.46-18 188.69-15.95 187.89-13.7L187.89-13.7 197.74-13.7Q196.94-15.95 196.19-18 195.44-20.05 194.76-21.75 194.09-23.45 193.59-24.75 193.09-26.05 192.79-26.8ZM211.99-34.65L240.69-34.65 240.69-28 230.24-28 230.24 0 222.44 0 222.44-28 211.99-28 211.99-34.65ZM270.23 0L245.68 0 245.68-34.65 269.08-34.65 269.08-28.1 253.48-28.1 253.48-21.3 267.33-21.3 267.33-14.9 253.48-14.9 253.48-6.55 270.23-6.55 270.23 0Z" fill="#1ebbd7" dataFillPaletteColor="primary"></path></g></svg></g></svg></g></svg></g></svg></g><g><svg viewBox="0 0 74.96067656327098 74.52348608712052" height="74.52348608712052" width="74.96067656327098"><g><svg xmlns="http://www.w3.org/2000/svg" viewBox="20 20.17376136779785 60.018585205078125 59.668540954589844" x="0" y="0" height="74.52348608712052" width="74.96067656327098" class="icon-icon-0" dataFillPaletteColor="accent" id="icon-0"><g data-name="Calque 2" fill="#1ebbd7" dataFillPaletteColor="accent"><path d="M23.82 23.07A1.82 1.82 0 1 1 22 24.88 1.82 1.82 0 0 1 23.82 23.07Zm0 5.58a3.73 3.73 0 0 0 2-0.56c2.07 1.44 9.08 6.45 10.21 7.14a6.25 6.25 0 0 0 3.19 1.25c0.63 0 2 0.06 4.13 0.06A2.75 2.75 0 0 0 45.8 38a2.76 2.76 0 1 0-2.69-3.32c-1.94 0-3.26 0-3.82-0.06A3.81 3.81 0 0 1 37 33.71c-1-0.63-7.64-5.39-9.9-7A4 4 0 0 0 27.57 25a3.7 3.7 0 0 0-3.7-3.7 3.74 3.74 0 0 0-3.7 3.7A3.6 3.6 0 0 0 23.82 28.64Z" fill="#1ebbd7" dataFillPaletteColor="accent"></path><path d="M22.13 44.61a1.82 1.82 0 1 1 1.82 1.82A1.78 1.78 0 0 1 22.13 44.61Zm5.39 0.94H33a2.71 2.71 0 0 0 2.57 1.82 2.76 2.76 0 0 0 0-5.51A2.71 2.71 0 0 0 33 43.67H27.52a3.76 3.76 0 0 0-3.57-2.76 3.7 3.7 0 0 0-3.7 3.7 3.74 3.74 0 0 0 3.7 3.7A3.52 3.52 0 0 0 27.52 45.55Z" fill="#1ebbd7" dataFillPaletteColor="accent"></path><path d="M28.33 49.87a1.82 1.82 0 1 1-1.82 1.82A1.82 1.82 0 0 1 28.33 49.87Zm0 5.58a3.7 3.7 0 0 0 3.57-2.76H33a2.72 2.72 0 0 0 2.57 1.82 2.76 2.76 0 0 0 0-5.51A2.71 2.71 0 0 0 33 50.81H31.9a3.76 3.76 0 0 0-3.57-2.76 3.7 3.7 0 0 0 0 7.39Z" fill="#1ebbd7" dataFillPaletteColor="accent"></path><path d="M23.7 75.24a1.82 1.82 0 1 1 1.82-1.82A1.78 1.78 0 0 1 23.7 75.24Zm1.06-5.39V63.4c0-2.94 1-3.57 2.69-3.57 2.07 0 4.38 0 5.39 0.06a2.73 2.73 0 0 0 2.63 1.82 2.76 2.76 0 1 0 0-5.51A2.71 2.71 0 0 0 32.9 58c-1.06 0-3.38-0.06-5.39-0.06-4.64 0-4.64 4.07-4.64 5.45v6.39A3.76 3.76 0 0 0 20 73.42a3.7 3.7 0 0 0 3.7 3.7 3.74 3.74 0 0 0 3.7-3.7A3.58 3.58 0 0 0 24.76 69.86Z" fill="#1ebbd7" dataFillPaletteColor="accent"></path><path d="M75.06 75.24a1.82 1.82 0 1 1 1.82-1.82A1.82 1.82 0 0 1 75.06 75.24Zm0.81-5.45V63.4c0-1.31 0-5.45-4.57-5.45-2.07 0-4.38 0-5.39 0.06a2.71 2.71 0 0 0-2.57-1.82 2.76 2.76 0 1 0 0 5.51A2.85 2.85 0 0 0 66 59.9c1.06 0 3.38-0.06 5.39-0.06C73 59.83 74 60.4 74 63.4v6.45a3.7 3.7 0 0 0 1 7.26 3.71 3.71 0 0 0 0.82-7.33Z" fill="#1ebbd7" dataFillPaletteColor="accent"></path><path d="M72.42 23.69A1.57 1.57 0 1 1 74 25.26 1.59 1.59 0 0 1 72.42 23.69ZM63.59 47.37A2.76 2.76 0 0 0 66 45.86h4.57c4.26 0 4.26-3.76 4.26-5V27a3.46 3.46 0 1 0-4.26-3.38A3.44 3.44 0 0 0 73.05 27v13.9c0 2.63-0.82 3.13-2.38 3.13H66.35a2.75 2.75 0 0 0-5.45 0.56A2.63 2.63 0 0 0 63.59 47.37Z" fill="#1ebbd7" dataFillPaletteColor="accent"></path><path d="M76.37 50.13a1.82 1.82 0 1 1-1.82 1.82A1.78 1.78 0 0 1 76.37 50.13Zm-13 4.57A2.71 2.71 0 0 0 66 52.88h6.77a3.76 3.76 0 0 0 3.57 2.76A3.7 3.7 0 1 0 72.74 51H66a2.71 2.71 0 0 0-2.57-1.82 2.78 2.78 0 0 0-2.76 2.76A2.73 2.73 0 0 0 63.4 54.7Z" fill="#1ebbd7" dataFillPaletteColor="accent"></path><rect x="40.48" y="39.98" width="18.04" height="23.93" rx="3.95" ry="3.95" fill="#1ebbd7" dataFillPaletteColor="accent"></rect><path d="M40.48 24.45a1.82 1.82 0 1 1-1.82 1.82A1.86 1.86 0 0 1 40.48 24.45Zm0 5.58A3.7 3.7 0 0 0 44 27.33h6.26c0.69 0 1.31 0 1.57 0.25s0.31 0.44 0.31 1.25c0 1.13 0 2.63-0.06 3.82a2.76 2.76 0 1 0 3.76 2.57 2.76 2.76 0 0 0-1.94-2.63c0-1.19 0.06-2.63 0.06-3.76a3.32 3.32 0 0 0-0.82-2.57 3.69 3.69 0 0 0-2.88-0.75h-6.2A3.71 3.71 0 1 0 40.48 30Z" fill="#1ebbd7" dataFillPaletteColor="accent"></path><path d="M35 76.18a1.82 1.82 0 1 1-1.82-1.82A1.78 1.78 0 0 1 35 76.18ZM45.8 66A2.71 2.71 0 0 0 43.3 67.6h-7c-1.31 0-4.07 0-4.07 3.7v1.25a3.68 3.68 0 0 0 0.88 7.27 3.74 3.74 0 0 0 3.7-3.7 3.7 3.7 0 0 0-2.69-3.57c0-0.37-0.06-0.82-0.06-1.25 0-1.69 0.56-1.82 2.19-1.82h6.83a2.69 2.69 0 0 0 2.63 2 2.78 2.78 0 0 0 2.76-2.76A2.69 2.69 0 0 0 45.8 66Z" fill="#1ebbd7" dataFillPaletteColor="accent"></path><path d="M62.71 78a1.82 1.82 0 0 1-1.82-1.82 1.87 1.87 0 0 1 1.82-1.88 1.82 1.82 0 0 1 1.82 1.82A1.87 1.87 0 0 1 62.71 78Zm0.88-5.45V71.29c0-3.7-2.76-3.7-4.07-3.7H55.7A2.67 2.67 0 0 0 53.2 66a2.76 2.76 0 1 0 2.63 3.51h3.7c1.63 0 2.19 0.12 2.19 1.82a8.09 8.09 0 0 1-0.06 1.25 3.7 3.7 0 1 0 4.7 3.57A3.57 3.57 0 0 0 63.59 72.55Z" fill="#1ebbd7" dataFillPaletteColor="accent"></path></g></svg></g></svg></g></svg></g><defs></defs></svg><rect width="395.52" height="60.99930186308329" fill="none" stroke="none" visibility="hidden"></rect></g></svg></g></svg>